<svg data-v-0dd9719b="" version="1.0" xmlns="http://www.w3.org/2000/svg" xmlns:xlink="http://www.w3.org/1999/xlink" width="100%" height="100%" viewBox="0 0 340.000000 250.000000" preserveAspectRatio="xMidYMid meet" color-interpolation-filters="sRGB" style="margin: auto;"> <rect data-v-0dd9719b="" x="0" y="0" width="100%" height="100%" fill="#fff" fill-opacity="1" class="background"></rect> <rect data-v-0dd9719b="" x="0" y="0" width="100%" height="100%" fill="url(#watermark)" fill-opacity="1" class="watermarklayer"></rect> <g data-v-0dd9719b="" fill="#333" class="icon-text-wrapper icon-svg-group iconsvg" transform="translate(48.275001525878906,89.68593978881836)"><g class="iconsvg-imagesvg" transform="translate(0,0)"><g><rect fill="#333" fill-opacity="0" stroke-width="2" x="0" y="0" width="60" height="70.6281194086072" class="image-rect"></rect> <svg x="0" y="0" width="60" height="70.6281194086072" filtersec="colorsb909716147" class="image-svg-svg primary" style="overflow: visible;"><svg xmlns="http://www.w3.org/2000/svg" viewBox="-0.0027660317718982697 0.018489420413970947 61.60030746459961 72.51151275634766"><title>tjDvTc.tif</title><path d="M0 37.35Q0 20.91.05 4.48c0-.69-.28-1.57.45-2S2 2.6 2.64 3c10.3 5.41 18.5 13.32 26.08 22a188.21 188.21 0 0 1 14 18.28A222.56 222.56 0 0 1 55.27 64c1 1.9 2 3.79 3 5.68.2.39.65.92.18 1.23s-.88-.33-1.13-.72q-3.78-5.86-8.06-11.39a147.18 147.18 0 0 0-13.8-15.37A136 136 0 0 0 21.61 31.8c-.39-.29-.82-.85-1.32-.56s-.25.93-.25 1.42v37.17c0 2.5-.2 2.7-2.73 2.7H2.7c-2.42 0-2.65-.23-2.65-2.62Q0 53.64 0 37.35z" fill="#018896"></path><path d="M61.54 36.26V69.6c0 .68.3 1.72-.47 1.93s-1-.86-1.3-1.44c-3-6.35-6.31-12.52-9.88-18.54A203.71 203.71 0 0 0 35.19 30a136.23 136.23 0 0 0-13.82-15 70.41 70.41 0 0 0-18-12.57c-.8-.32-2.16-.7-1.9-1.43S3 .76 3.79.94a127.48 127.48 0 0 1 22.42 7.25 99 99 0 0 1 19.33 10.88c.79.57 1.52 1.21 2.29 1.81s1.41.58 1.71-.48a61.56 61.56 0 0 1 3-7.72A38.42 38.42 0 0 1 59.17 1.9c.47-.52 1-1.26 1.76-1s.57 1.22.58 1.88v33.49z" fill="#f39c00"></path><path d="M51.08 8.2c0 3.6-2 6.32-4.94 6.83-3.56.61-6.42-1.26-7.9-4.61A8 8 0 0 1 40.74 1c2.84-1.85 6-.89 8 1.26a7.38 7.38 0 0 1 2.34 5.94z" fill="#f39c00"></path></svg></svg> <!----></g></g> <g transform="translate(67,7.027809143066406)"><g data-gra="path-name" fill-rule="" class="tp-name iconsvg-namesvg" transform="translate(0,0)"><g transform="scale(1)"><g><path d="M23.49 3.78L23.49 3.78 8.05 3.78 8.05 0.81 22 0.81 22-19.26 2.11-19.26 2.11-22.23 42.39-22.23 42.39-19.26 24.97-19.26 24.97 2.29Q24.97 2.92 24.55 3.35 24.12 3.78 23.49 3.78L23.49 3.78ZM42.25-24.16L42.25-24.16 39.28-24.16 39.28-30.42 5.54-30.42 5.54-24.16 2.56-24.16 2.56-31.86Q2.56-32.49 2.99-32.92 3.42-33.34 4.05-33.34L4.05-33.34 20.93-33.34 20.29-35.59 23.13-36.41 24.03-33.34 40.77-33.34Q41.4-33.34 41.83-32.92 42.25-32.49 42.25-31.86L42.25-31.86 42.25-24.16ZM86.17 3.96L86.17 3.96 75.78-4.91 63.9 4.05 62.14 1.67 73.48-6.88 62.73-16.11 64.66-18.36 75.87-8.69 83.38-14.35 83.38-19.48 61.97-19.48 61.97-5.17Q61.97-5.04 61.88-4.77L61.88-4.77 59.22 4.27 56.38 3.46 58.99-5.4 58.99-31.95Q58.99-32.58 59.42-33.01 59.85-33.44 60.48-33.44L60.48-33.44 71.73-33.44 71.73-36.23 74.7-36.23 74.7-33.44 86-33.44Q86.67-33.44 87.16-32.94L87.16-32.94Q87.57-32.4 87.48-31.72L87.48-31.72 86.13-24.25 83.2-24.75 84.24-30.51 74.7-30.51 74.7-22.41 84.87-22.41Q85.5-22.41 85.93-22 86.35-21.6 86.35-20.97L86.35-20.97 86.35-13.63Q86.35-12.91 85.77-12.42L85.77-12.42 78.21-6.71 88.11 1.75 86.17 3.96ZM50.8 4.14L50.8 4.14 47.97 3.28 54.23-17.23 47.38-22.77 49.27-25.06 56.84-18.9Q57.64-18.31 57.33-17.32L57.33-17.32 50.8 4.14ZM58.19-29.7L56.25-27.45 47.88-34.65 49.81-36.9 58.19-29.7ZM61.97-30.51L61.97-22.41 71.73-22.41 71.73-30.51 61.97-30.51ZM130.37-20.79L130.37-20.79 105.48-20.79Q104.85-20.79 104.44-21.22 104.04-21.64 104.04-22.27L104.04-22.27 104.04-27.4 97.06-19.89 97.06 3.92 94.09 3.92 94.09-20.47Q94.09-21.06 94.5-21.46L94.5-21.46 102.06-29.7 104.04-27.86 104.04-34.88Q104.04-35.5 104.44-35.93 104.85-36.36 105.48-36.36L105.48-36.36 130.37-36.36Q131-36.36 131.42-35.93 131.85-35.5 131.85-34.88L131.85-34.88 131.85-22.27Q131.85-21.64 131.42-21.22 131-20.79 130.37-20.79L130.37-20.79ZM126.41 3.92L126.41 3.92 114.84 3.92 114.84 0.99 124.92 0.99 124.92-8.59 102.64-8.59 102.64-11.52 124.92-11.52 124.92-15.43 103.5-15.43 103.5-18.4 131.81-18.4 131.81-15.43 127.89-15.43 127.89-11.52 132.66-11.52 132.66-8.59 127.89-8.59 127.89 2.43Q127.89 3.06 127.46 3.49 127.03 3.92 126.41 3.92L126.41 3.92ZM101.66-35.32L93.33-26.59 91.17-28.62 99.5-37.35 101.66-35.32ZM128.88-30.06L128.88-33.39 106.97-33.39 106.97-30.06 128.88-30.06ZM106.97-27.09L106.97-23.71 128.88-23.71 128.88-27.09 106.97-27.09ZM119.25-3.42L118.35-0.63 105.34-4.68 106.25-7.51 119.25-3.42ZM139.41 2.7L139.41 2.7Q138.87 2.7 138.42 2.34L138.42 2.34Q137.97 1.89 137.97 1.26L137.97 1.26 137.97-34.74 140.9-34.74 140.9-0.32 143.96-0.58 143.96-36.23 146.93-36.23 146.93-0.85 149.99-1.13 149.99-34.74 152.95-34.74 152.95 0.18Q152.95 0.77 152.57 1.17 152.19 1.57 151.6 1.67L151.6 1.67 139.54 2.7 139.41 2.7ZM177.39-18.22L177.39-18.22 166.41-22.86 154.03-18.22 153-20.97 162.54-24.52 154.31-28.04 155.47-30.73 166.59-26.01 174.19-28.89 174.19-31.36 156.24-31.36Q155.38-31.36 154.94-32.13L154.94-32.13Q154.53-32.85 154.98-33.62L154.98-33.62 157.05-37.03 159.57-35.46 158.85-34.34 175.68-34.34Q176.31-34.34 176.74-33.91 177.16-33.48 177.16-32.85L177.16-32.85 177.16-27.9Q177.16-26.86 176.18-26.5L176.18-26.5 170.5-24.39 178.56-20.97 177.39-18.22ZM167.31-1.17L167.31 3.92 164.34 3.92 164.34-1.17 153.9-1.17 153.9-4.14 164.34-4.14 164.34-7.83 154.71-7.83 154.71-10.75 164.34-10.75 164.34-14.89 154.71-14.89 154.71-17.86 164.34-17.86 164.34-20.29 167.31-20.29 167.31-17.86 176.85-17.86 176.85-14.89 167.31-14.89 167.31-10.75 176.85-10.75 176.85-7.83 167.31-7.83 167.31-4.14 177.66-4.14 177.66-1.17 167.31-1.17Z" transform="translate(-2.109999895095825, 37.349998474121094)"></path></g> <!----> <!----> <!----> <!----> <!----> <!----> <!----></g></g> <g data-gra="path-slogan" fill-rule="" class="tp-slogan iconsvg-slogansvg" fill="#333" transform="translate(4.999992370605469,47.619998931884766)"><rect x="0" height="1" y="3.9750003814697266" width="30.959999084472656"></rect> <rect height="1" y="3.9750003814697266" width="30.959999084472656" x="135.48999786376953"></rect> <g transform="translate(33.959999084472656,0)"><g transform="scale(1)"><path d="M2.30-8.58L6.61-1.64L6.61-8.58L7.73-8.58L7.73 0L6.42 0L2.06-6.94L2.02-6.94L2.02 0L0.89 0L0.89-8.58L2.30-8.58ZM9.70-8.58L10.88-8.58L10.88 0L9.70 0L9.70-8.58ZM14.25-8.58L18.56-1.64L18.56-8.58L19.69-8.58L19.69 0L18.38 0L14.02-6.94L13.97-6.94L13.97 0L12.84 0L12.84-8.58L14.25-8.58ZM27.89-3.61L25.27-3.61L25.27-4.59L29.02-4.59L29.02 0L28.27 0L27.98-1.08Q27 0.09 25.17 0.14L25.17 0.14Q23.44 0.14 22.50-0.75L22.50-0.75Q21.09-2.06 21.14-4.36L21.14-4.36Q21.47-8.63 25.22-8.81L25.22-8.81Q28.41-8.63 28.88-6L28.88-6L27.75-6Q27.28-7.78 25.17-7.83L25.17-7.83Q22.50-7.64 22.36-4.31L22.36-4.31Q22.36-0.75 25.22-0.75L25.22-0.75Q26.25-0.75 27-1.31L27-1.31Q27.94-2.06 27.89-3.61L27.89-3.61ZM34.03-7.64L31.97-7.64L31.97-4.97L34.03-4.97Q35.86-4.92 35.81-6.38L35.81-6.38Q35.81-7.64 34.03-7.64L34.03-7.64ZM34.50 0L30.80 0L30.80-8.58L34.59-8.58Q36.89-8.48 36.98-6.42L36.98-6.42Q36.98-5.16 35.86-4.64L35.86-4.64Q37.45-4.08 37.45-2.53L37.45-2.53Q37.31-0.09 34.50 0L34.50 0ZM34.22-3.98L31.97-3.98L31.97-0.98L34.45-0.98Q36.23-1.03 36.28-2.53L36.28-2.53Q36.28-3.98 34.22-3.98L34.22-3.98ZM45.56-4.27L45.56-4.27Q45.38-7.64 42.56-7.83L42.56-7.83Q39.70-7.69 39.56-4.27L39.56-4.27Q39.70-0.94 42.56-0.80L42.56-0.80Q45.38-0.98 45.56-4.27ZM46.73-4.27L46.73-4.27Q46.45 0 42.56 0.14L42.56 0.14Q38.63 0 38.34-4.27L38.34-4.27Q38.58-8.72 42.56-8.81L42.56-8.81Q46.45-8.67 46.73-4.27ZM54.94 0L51.47 0L51.47-8.58L54.98-8.58Q58.45-8.39 58.59-4.41L58.59-4.41Q58.41-0.09 54.94 0L54.94 0ZM54.80-7.64L52.64-7.64L52.64-0.98L54.89-0.98Q57.33-1.13 57.42-4.31L57.42-4.31Q57.38-7.55 54.80-7.64L54.80-7.64ZM61.36-1.03L66.52-1.03L66.52 0L60.19 0L60.19-8.58L66.42-8.58L66.42-7.59L61.36-7.59L61.36-4.92L66.05-4.92L66.05-3.89L61.36-3.89L61.36-1.03ZM73.55-3.89L69.33-3.89L69.33 0L68.16 0L68.16-8.58L74.11-8.58L74.11-7.59L69.33-7.59L69.33-4.92L73.55-4.92L73.55-3.89ZM76.59-1.03L81.75-1.03L81.75 0L75.42 0L75.42-8.58L81.66-8.58L81.66-7.59L76.59-7.59L76.59-4.92L81.28-4.92L81.28-3.89L76.59-3.89L76.59-1.03ZM84.66-8.58L88.97-1.64L88.97-8.58L90.09-8.58L90.09 0L88.78 0L84.42-6.94L84.38-6.94L84.38 0L83.25 0L83.25-8.58L84.66-8.58ZM98.30-3.61L95.67-3.61L95.67-4.59L99.42-4.59L99.42 0L98.67 0L98.39-1.08Q97.41 0.09 95.58 0.14L95.58 0.14Q93.84 0.14 92.91-0.75L92.91-0.75Q91.50-2.06 91.55-4.36L91.55-4.36Q91.88-8.63 95.63-8.81L95.63-8.81Q98.81-8.63 99.28-6L99.28-6L98.16-6Q97.69-7.78 95.58-7.83L95.58-7.83Q92.91-7.64 92.77-4.31L92.77-4.31Q92.77-0.75 95.63-0.75L95.63-0.75Q96.66-0.75 97.41-1.31L97.41-1.31Q98.34-2.06 98.30-3.61L98.30-3.61Z" transform="translate(-0.890625, 8.8125)"></path></g></g></g></g></g><defs v-gra="od"></defs></svg>